<?xml version="1.0" encoding="UTF-8" standalone="no"?>
<!-- Created with Inkscape (http://www.inkscape.org/) -->

<svg
   width="512"
   height="512"
   viewBox="0 0 135.46666 135.46667"
   version="1.1"
   id="svg5"
   inkscape:version="1.1.2 (b8e25be8, 2022-02-05)"
   sodipodi:docname="hotcompress.svg"
   xmlns:inkscape="http://www.inkscape.org/namespaces/inkscape"
   xmlns:sodipodi="http://sodipodi.sourceforge.net/DTD/sodipodi-0.dtd"
   xmlns="http://www.w3.org/2000/svg"
   xmlns:svg="http://www.w3.org/2000/svg">
  <sodipodi:namedview
     id="namedview7"
     pagecolor="#ffffff"
     bordercolor="#666666"
     borderopacity="1.0"
     inkscape:pageshadow="2"
     inkscape:pageopacity="0.0"
     inkscape:pagecheckerboard="0"
     inkscape:document-units="mm"
     showgrid="false"
     units="px"
     inkscape:zoom="0.77771465"
     inkscape:cx="12.215277"
     inkscape:cy="370.95868"
     inkscape:window-width="1808"
     inkscape:window-height="1081"
     inkscape:window-x="751"
     inkscape:window-y="100"
     inkscape:window-maximized="0"
     inkscape:current-layer="layer1" />
  <defs
     id="defs2" />
  <g
     inkscape:label="Layer 1"
     inkscape:groupmode="layer"
     id="layer1">
    <g
       id="g1802"
       transform="translate(-0.65081148,-0.17905411)">
      <g
         id="g1131"
         transform="matrix(1.472395,0,0,1.3884982,15.28287,-177.78024)">
        <path
           style="fill:#d0d0d0;fill-opacity:1;stroke-width:0.352778"
           d="m 7.2501072,219.59416 c -2.2909923,-0.88945 -4.5087359,-3.0171 -5.6097937,-5.38191 -0.72739614,-1.56227 -0.84983492,-2.35883 -0.85278638,-5.54804 -0.005244,-5.66595 0.45756428,-6.7132 6.48394708,-14.67207 12.8687798,-16.9954 15.5672818,-20.35877 17.2697508,-21.52473 3.220193,-2.20539 3.525418,-2.2363 22.079798,-2.236 16.781108,2.8e-4 16.781108,2.8e-4 18.912944,1.00882 2.423009,1.14629 3.770986,2.56619 5.023975,5.29204 0.740559,1.61107 0.84521,2.26468 0.706053,4.40972 -0.08986,1.38507 -0.429126,3.03029 -0.753932,3.65604 -1.441453,2.77699 -21.183803,31.18685 -22.495804,32.37217 -0.80343,0.72585 -2.352961,1.73806 -3.4434,2.24936 -1.982615,0.92963 -1.982615,0.92963 -18.739558,1.00624 -16.036858,0.0733 -16.8353352,0.0462 -18.5811938,-0.63164 z m 34.8211478,-2.79392 c 3.357584,-0.93278 3.832035,-1.49262 14.643925,-17.27947 5.618102,-8.2032 10.497043,-15.49016 10.842098,-16.19325 0.444525,-0.90577 0.595232,-1.89959 0.517106,-3.41001 -0.123963,-2.39656 -0.881888,-3.75496 -2.99381,-5.36566 -1.27097,-0.96933 -1.27097,-0.96933 -18.760816,-0.96933 -17.265167,0 -17.507973,0.01 -18.900957,0.76386 -0.776111,0.42012 -1.981406,1.37262 -2.678434,2.11667 -1.100222,1.17443 -17.6791917,22.77764 -18.4551179,24.04792 -0.1875804,0.30709 0.1238874,0.24592 0.8981972,-0.17639 1.0862168,-0.59243 2.4245748,-0.65552 16.0020217,-0.75434 16.309011,-0.11869 16.871042,-0.0625 19.183871,1.91717 3.850569,3.29595 3.144385,9.6448 -1.335885,12.01011 -1.554794,0.82083 -1.554794,0.82083 -16.641683,0.82083 -15.08689,0 -15.08689,0 -16.1487419,-0.89349 -1.8516838,-1.55809 -2.1816189,-3.99624 -0.8243672,-6.0919 1.167427,-1.80256 1.4525402,-1.83405 16.6060331,-1.83405 12.350928,0 14.172316,0.0689 14.657795,0.55437 0.688686,0.68868 0.689173,0.86007 0.0052,1.83658 -0.549162,0.78405 -0.549162,0.78405 -14.420683,0.78405 -11.696118,0 -13.938191,0.0803 -14.2966409,0.51224 -0.584073,0.70376 -0.1551347,1.83694 0.7913839,2.09068 1.2752,0.34187 26.057357,0.23125 27.593175,-0.12316 2.84758,-0.65712 4.20528,-3.68578 2.837762,-6.33026 -1.081909,-2.09219 -1.521763,-2.14707 -17.178576,-2.14328 -14.2341835,0.004 -14.2341835,0.004 -16.0635588,0.8552 -2.5076839,1.16756 -3.7384309,3.04903 -3.9264949,6.00253 -0.1530255,2.40322 0.529647,4.25932 2.1080855,5.73164 1.9558121,1.82431 2.1429103,1.84259 18.9936172,1.8553 9.231202,0.007 16.2123,-0.13087 16.945509,-0.33456 z"
           id="path1147" />
        <path
           style="fill:#b9b9b9;fill-opacity:1;stroke-width:0.352778"
           d="m 7.7903366,219.7792 c -1.9722344,-0.61527 -4.9683496,-3.20608 -6.0536818,-5.23475 -0.6855228,-1.28135 -0.77618507,-1.9865 -0.77618507,-6.03693 0,-4.41303 0.041633,-4.67265 1.10314957,-6.87917 1.2091152,-2.51331 19.0779627,-26.22433 21.2057087,-28.13885 0.703774,-0.63325 2.163438,-1.58575 3.243697,-2.11667 1.964109,-0.96531 1.964109,-0.96531 19.779386,-0.96531 17.815276,0 17.815276,0 19.696541,1.04209 3.176326,1.75946 4.975648,4.54771 5.265575,8.15959 0.119528,1.48907 -0.0088,2.70616 -0.410164,3.89093 -0.642391,1.89611 -20.211184,30.79835 -22.37899,33.05277 -0.71006,0.73843 -2.319217,1.84968 -3.5759,2.46944 -2.284885,1.12685 -2.284885,1.12685 -18.873611,1.19717 -13.636475,0.0578 -16.880023,-0.0206 -18.2255254,-0.44031 z m 34.6350544,-3.02714 c 2.968579,-0.88941 4.19185,-2.34955 14.000165,-16.71121 12.00755,-17.58184 11.739075,-17.13708 11.739075,-19.44725 0,-2.3198 -0.446176,-3.51628 -1.873719,-5.02467 -2.080496,-2.19831 -1.753446,-2.16313 -20.075365,-2.15935 -16.68008,0.003 -16.68008,0.003 -18.443968,0.83978 -0.970139,0.45998 -2.337807,1.45061 -3.039262,2.20141 -1.092488,1.16934 -17.7706067,22.8963 -18.4005019,23.97075 -0.1227402,0.20937 0.656216,0.0838 1.7310134,-0.27906 1.8064379,-0.60985 3.0653825,-0.65197 16.6522965,-0.55706 14.698119,0.10268 14.698119,0.10268 16.269956,0.98462 0.864507,0.48507 2.055132,1.57031 2.645833,2.41164 0.959534,1.36666 1.073997,1.80474 1.073997,4.11042 0,2.33466 -0.105901,2.72692 -1.110693,4.114 -0.61088,0.84329 -1.786787,1.89079 -2.613127,2.32777 -1.489872,0.78786 -1.626856,0.7945 -16.387828,0.7945 -14.8853987,0 -14.8853987,0 -16.0840962,-0.80664 -1.7201578,-1.15756 -2.306583,-3.08606 -1.5448953,-5.08052 0.362875,-0.95017 0.9959459,-1.75618 1.741094,-2.2167 1.1367991,-0.70258 1.5842255,-0.72097 15.3672885,-0.63142 14.140328,0.0919 14.198413,0.0953 14.706159,0.86012 0.458896,0.69127 0.436777,0.84087 -0.221654,1.49931 -0.714901,0.7149 -1.040476,0.73141 -14.419191,0.73141 -13.87083,0 -14.5344434,0.0584 -14.5344434,1.28008 0,0.23838 0.2494643,0.68288 0.5543654,0.98778 0.48475,0.48475 2.258196,0.55436 14.12244,0.55436 14.72632,0 15.172101,-0.052 16.661183,-1.9451 1.535913,-1.9526 0.69305,-5.43979 -1.540369,-6.37297 -1.563236,-0.65316 -28.621894,-0.74166 -30.5387268,-0.0999 -6.2667005,2.09818 -6.7010833,10.88392 -0.6674848,13.50043 1.0384116,0.45031 3.7224666,0.53652 17.0662726,0.54816 10.78555,0.009 16.258165,-0.11325 17.164186,-0.38471 z"
           id="path1145" />
        <path
           style="fill:#a3a3a3;fill-opacity:1;stroke-width:0.352778"
           d="m 7.696534,219.7534 c -1.2371795,-0.3857 -2.3023369,-1.11126 -3.7358733,-2.5448 -2.7267016,-2.7267 -3.29678982,-4.47076 -3.12281662,-9.55357 0.12002912,-3.50678 0.22305722,-3.97685 1.36605482,-6.23267 0.7086927,-1.39868 5.3960541,-7.85935 10.9842981,-15.13984 10.503136,-13.68372 11.136023,-14.33011 15.182595,-15.50648 1.712146,-0.49774 4.131932,-0.55804 18.850595,-0.46978 16.8863,0.10126 16.8863,0.10126 18.76433,1.14159 4.248746,2.35358 6.386808,7.58822 4.891648,11.97628 -0.609438,1.7886 -20.356585,30.96632 -22.421167,33.12877 -0.705016,0.73843 -2.310003,1.84968 -3.566647,2.46944 -2.284804,1.12685 -2.284804,1.12685 -18.873609,1.19872 -14.041201,0.0608 -16.8545813,-0.011 -18.319408,-0.46766 z m 35.168655,-3.16073 c 0.900546,-0.30684 2.270195,-1.14028 3.043668,-1.85208 1.31101,-1.20648 20.360772,-28.77116 21.716666,-31.42365 0.450339,-0.88098 0.576947,-1.78796 0.474398,-3.39846 -0.17731,-2.78461 -1.359161,-4.70292 -3.55117,-5.76405 -1.508929,-0.73046 -1.944575,-0.74821 -18.279525,-0.74485 -16.733759,0.003 -16.733759,0.003 -18.497647,0.85856 -0.970139,0.47031 -2.101813,1.14345 -2.514831,1.49586 -0.720014,0.61436 -19.1810009,24.64314 -19.1810009,24.96595 0,0.0863 0.5953125,-0.11286 1.3229166,-0.44251 1.1797593,-0.5345 2.9835383,-0.59936 16.6687483,-0.59936 15.345832,0 15.345832,0 16.917669,0.88194 3.569398,2.00276 4.836685,6.0081 3.053888,9.65201 -0.60778,1.24225 -1.435619,2.25006 -2.393989,2.91441 -1.464945,1.01552 -1.464945,1.01552 -16.476778,1.11489 -10.816931,0.0716 -15.2887935,-0.0153 -16.0029635,-0.31117 -1.4984584,-0.62068 -2.3839359,-2.10381 -2.3839359,-3.99297 0,-1.35986 0.1978762,-1.84239 1.2073226,-2.94416 1.2073226,-1.31773 1.2073226,-1.31773 15.5603288,-1.4175 10.466129,-0.0727 14.485988,0.0106 14.844064,0.30778 0.71319,0.5919 0.602061,2.00081 -0.191304,2.42541 -0.436358,0.23353 -5.561847,0.36519 -14.216943,0.36519 -13.713381,0 -14.3812464,0.0594 -14.3812464,1.28008 0,0.23838 0.2494643,0.68288 0.5543654,0.98778 0.48475,0.48475 2.258196,0.55436 14.12244,0.55436 14.72632,0 15.172101,-0.052 16.661183,-1.9451 1.581675,-2.01078 0.700063,-5.5255 -1.627851,-6.48975 -0.725381,-0.30046 -5.077326,-0.38588 -15.854294,-0.31117 -14.854462,0.10297 -14.854462,0.10297 -16.3667034,1.16618 -4.5945534,3.23031 -4.2252848,9.914 0.691243,12.51137 1.2194577,0.64423 2.1748945,0.68259 17.3671894,0.69732 13.761464,0.0133 16.312541,-0.0648 17.714092,-0.54231 z"
           id="path1143" />
        <path
           style="fill:#8c8c8c;fill-opacity:1;stroke-width:0.352778"
           d="m 8.7215802,219.99456 c -3.3727443,-0.82474 -6.5178591,-3.7856 -7.4586053,-7.02165 -0.86608727,-2.97924 -0.53626536,-8.44498 0.6683805,-11.07628 0.9161954,-2.00123 19.1986196,-26.32155 21.2480266,-28.26533 0.58543,-0.55526 2.096294,-1.50776 3.357475,-2.11667 2.293055,-1.10711 2.293055,-1.10711 19.755554,-1.10711 17.130496,0 17.49373,0.0144 19.105148,0.7593 5.028028,2.32415 7.347454,8.69893 4.906161,13.48425 -0.863896,1.69338 -19.202673,28.66229 -21.049035,30.95461 -0.643995,0.79954 -1.932717,1.94256 -2.863825,2.54005 -3.24063,2.07951 -4.272974,2.18365 -21.251038,2.14373 -8.44795,-0.0199 -15.8361585,-0.15256 -16.4182418,-0.2949 z m 35.1108268,-3.81412 c 1.019644,-0.53358 2.444799,-1.68452 3.167009,-2.55764 2.929759,-3.54197 20.757196,-30.21278 21.131613,-31.61404 0.754345,-2.82315 -0.673132,-6.18946 -3.269964,-7.7113 -1.520924,-0.89133 -1.520924,-0.89133 -18.423261,-0.86449 -17.535176,0.0279 -17.661158,0.0376 -20.205013,1.56066 -0.741495,0.44396 -4.696776,5.31349 -10.667731,13.13355 -5.219122,6.83539 -9.4893129,12.50261 -9.4893129,12.5938 0,0.0912 0.5953125,-0.10383 1.3229166,-0.43341 1.1541011,-0.52275 3.0335803,-0.614 14.7284713,-0.71504 7.373055,-0.0637 14.398906,-0.0113 15.613001,0.11641 6.366855,0.66983 9.317351,7.45218 5.254762,12.07922 -2.238897,2.54996 -2.194055,2.54377 -18.504032,2.55245 -15.987525,0.008 -16.0920361,-0.004 -17.1744253,-2.09738 -0.294326,-0.56916 -0.5351381,-1.68005 -0.5351381,-2.46865 0,-1.14056 0.2469247,-1.70332 1.2073226,-2.75155 1.2073226,-1.31773 1.2073226,-1.31773 15.5603288,-1.4175 10.466129,-0.0727 14.485988,0.0106 14.844064,0.30778 0.71319,0.5919 0.602061,2.00081 -0.191304,2.42541 -0.436358,0.23353 -5.561847,0.36519 -14.216943,0.36519 -10.056525,0 -13.643366,0.10879 -13.957913,0.42333 -0.6356569,0.63566 -0.5100119,1.62212 0.25903,2.0337 0.436621,0.23367 5.594604,0.36519 14.322378,0.36519 15.64654,0 15.60849,0.006 16.819311,-2.73108 0.611385,-1.38214 0.634531,-1.70359 0.216973,-3.01346 -0.310011,-0.9725 -0.871086,-1.73714 -1.666113,-2.27059 -1.1987,-0.80431 -1.1987,-0.80431 -15.798136,-0.80431 -15.6906661,0 -16.0861991,0.041 -18.0458767,1.86892 -0.9920527,0.92537 -1.9948796,2.80915 -2.3354206,4.38701 -0.3687278,1.70846 0.6131945,4.65087 1.9978708,5.98679 2.3839758,2.30001 1.6423519,2.2166 19.7295585,2.21899 16.452077,0.002 16.452077,0.002 18.305974,-0.96796 z"
           id="path1141" />
        <path
           style="fill:#767676;fill-opacity:1;stroke-width:0.352778"
           d="m 8.3688025,219.84051 c -3.1621107,-1.01888 -5.0906941,-2.64098 -6.5536611,-5.51216 -0.6189982,-1.21483 -0.84517838,-2.36122 -0.96348262,-4.88339 -0.1794684,-3.82615 0.48624622,-6.88294 2.02865422,-9.31507 1.5616974,-2.46254 18.300913,-24.28981 19.900102,-25.94894 0.804862,-0.83503 2.491842,-2.02565 3.748845,-2.64583 2.285458,-1.1276 2.285458,-1.1276 19.755555,-1.1276 17.049498,0 17.508314,0.018 19.057594,0.74592 1.992976,0.93644 3.984166,2.93495 5.021255,5.03969 1.196848,2.42898 1.121064,6.28601 -0.170518,8.67828 -0.523773,0.97014 -5.522267,8.42614 -11.107758,16.56889 -10.740718,15.65824 -11.426295,16.47242 -15.161591,18.0056 -1.583453,0.64994 -2.696393,0.69784 -17.916107,0.77114 -12.455716,0.06 -16.5557819,-0.0275 -17.6388875,-0.37653 z m 34.7486085,-3.2515 c 0.873125,-0.40587 2.100534,-1.1716 2.727572,-1.70162 0.96448,-0.81524 20.650463,-29.14375 21.983783,-31.63508 0.247593,-0.46263 0.462272,-1.73181 0.477061,-2.8204 0.03514,-2.58641 -1.39229,-5.03567 -3.683427,-6.32022 -1.573046,-0.88194 -1.573046,-0.88194 -18.329989,-0.88194 -16.390226,0 -16.791685,0.0165 -18.344443,0.75462 -0.873125,0.41505 -2.087965,1.2088 -2.699644,1.76389 -1.040962,0.94467 -19.1725769,24.54447 -19.1725769,24.9547 0,0.1037 0.6549591,-0.0425 1.4554647,-0.32498 1.1879456,-0.41913 4.2577252,-0.51351 16.7014572,-0.51351 15.245991,0 15.245991,0 16.800785,0.82114 3.985655,2.10496 4.979694,7.64495 1.983944,11.05692 -2.264311,2.57891 -2.195928,2.56939 -18.526532,2.57808 -15.987525,0.008 -16.0920361,-0.004 -17.1744253,-2.09738 -0.7711108,-1.49116 -0.6808099,-3.61176 0.2015663,-4.73352 1.5569405,-1.97933 1.5693547,-1.9808 16.665079,-1.9808 14.998285,0 14.901398,-0.0121 14.639877,1.83267 -0.115274,0.81316 -0.115274,0.81316 -14.327723,0.98955 -15.0292747,0.18653 -14.8703681,0.16751 -14.8863133,1.78153 -0.013353,1.35154 0.4302413,1.39347 14.7403093,1.39347 11.95943,0 14.063601,-0.0781 15.078229,-0.55956 3.088566,-1.46562 3.344672,-5.77922 0.447982,-7.54529 -1.122214,-0.68419 -1.738736,-0.7117 -15.808035,-0.70553 -16.4806642,0.007 -16.4320838,3e-4 -18.6239446,2.65941 -3.6973871,4.48557 -1.1046692,10.83506 4.8656126,11.91573 0.48507,0.0878 7.708194,0.13634 16.051388,0.10786 14.59244,-0.0498 15.229828,-0.0799 16.756943,-0.78974 z"
           id="path1139" />
        <path
           style="fill:#606060;fill-opacity:1;stroke-width:0.352778"
           d="M 8.7983101,219.94881 C 5.8434137,219.2346 3.3529455,217.27762 1.9105628,214.5365 1.0354137,212.87336 0.96658143,212.42847 0.97776348,208.50752 0.98779274,204.99079 1.121012,203.94574 1.7647531,202.33391 2.6795388,200.04342 20.588291,176.29215 23.35664,173.69793 c 0.987636,-0.92551 2.650932,-2.00853 3.792588,-2.46944 2.032554,-0.8206 2.041177,-0.82097 19.319571,-0.82097 17.28611,0 17.28611,0 18.965682,0.83443 3.252381,1.6158 5.90515,5.66778 5.90515,9.01983 0,2.86408 -0.999681,4.60504 -11.481484,19.99513 -5.733548,8.41839 -11.01232,15.84266 -11.730601,16.49837 -0.718283,0.65572 -2.337844,1.68759 -3.599024,2.29306 -2.293056,1.10085 -2.293056,1.10085 -18.344443,1.16192 -8.828263,0.0336 -16.6518592,-0.0841 -17.3857689,-0.26145 z m 34.5333779,-3.4374 c 0.990974,-0.44855 2.361819,-1.40105 3.046317,-2.11666 1.863785,-1.94852 21.146296,-30.3635 21.707921,-31.9891 1.254072,-3.62989 -1.195105,-7.88934 -5.171464,-8.99386 -1.758802,-0.48855 -30.863333,-0.47438 -33.150532,0.0161 -3.465054,0.74312 -4.174991,1.47672 -14.431988,14.91301 -5.284935,6.92306 -9.6089726,12.6566 -9.6089726,12.74118 0,0.0846 0.7083537,-0.15954 1.5741197,-0.54252 1.50191,-0.66436 2.2922323,-0.69177 17.2285009,-0.59752 15.654382,0.0988 15.654382,0.0988 17.060864,1.07377 3.579879,2.48161 4.251272,7.51452 1.430944,10.72669 -2.261767,2.57601 -2.214594,2.56939 -18.367504,2.57808 -15.7998737,0.008 -16.0503523,-0.0217 -17.2667303,-2.08086 -0.848336,-1.43612 -0.7748901,-3.5935 0.1629258,-4.78574 1.4886145,-1.89246 1.9383433,-1.9451 16.6189545,-1.9451 14.570433,0 14.910275,0.0413 14.664343,1.78365 -0.121698,0.86218 -0.121698,0.86218 -14.232808,1.03857 -7.761111,0.097 -14.309547,0.30482 -14.552082,0.46179 -0.5607553,0.36293 -0.5713333,1.73618 -0.01764,2.28988 0.315006,0.315 3.9936,0.42319 14.375693,0.42278 15.709447,-7e-4 15.745635,-0.006 17.052977,-2.56371 0.864072,-1.69044 0.589308,-3.39561 -0.797274,-4.94787 -1.010225,-1.13092 -1.010225,-1.13092 -16.201611,-1.22999 -14.5297203,-0.0948 -15.2507779,-0.0688 -16.5549592,0.59658 -2.8808466,1.4697 -4.6084946,4.6347 -4.1375443,7.57986 0.4692551,2.93456 2.8093135,5.55112 5.5677953,6.22568 0.634444,0.15515 8.1385332,0.2548 16.6757552,0.22146 15.402121,-0.0602 15.536163,-0.0669 17.323998,-0.87618 z"
           id="path1137" />
        <path
           style="fill:#494949;fill-opacity:1;stroke-width:0.352778"
           d="m 8.9138215,219.94019 c -3.4075466,-0.66796 -6.555209,-3.61287 -7.5915303,-7.10254 -1.01052404,-3.40281 -0.5660323,-8.41199 1.0280682,-11.58577 1.1865289,-2.36233 19.6387436,-26.4633 21.4437786,-28.00834 0.798607,-0.68358 2.337734,-1.60133 3.420282,-2.03944 1.94835,-0.78851 2.139644,-0.79658 18.901602,-0.79658 15.764202,0 17.052768,0.0461 18.663209,0.66724 4.885203,1.88427 7.599676,7.43479 5.970869,12.20915 -0.73654,2.15896 -20.13728,30.90835 -22.41717,33.21936 -1.58877,1.61046 -4.041722,2.89222 -6.555799,3.42565 -2.236865,0.47461 -30.450233,0.48429 -32.8633095,0.0112 z m 34.4600765,-3.44693 c 1.014194,-0.45855 2.443628,-1.49042 3.176524,-2.29306 1.71366,-1.87674 20.768368,-29.78882 21.450651,-31.42175 0.283986,-0.67967 0.516336,-1.65901 0.516336,-2.17631 0,-3.13071 -2.466897,-6.4035 -5.379501,-7.13691 -2.151302,-0.5417 -30.872351,-0.57381 -33.373978,-0.0373 -3.49711,0.75 -4.219592,1.49503 -14.461608,14.913 -5.268644,6.9024 -9.5793526,12.62864 -9.5793526,12.72499 0,0.0963 0.6746874,-0.13108 1.4993054,-0.50539 1.4060543,-0.63823 2.4489768,-0.68104 16.7682742,-0.68831 12.019296,-0.006 15.510569,0.0934 16.404166,0.46749 1.60922,0.67369 3.671322,3.0989 4.151654,4.88272 0.945935,3.51292 -1.451155,7.81858 -4.860279,8.73004 -1.024537,0.27392 -6.027545,0.36749 -15.990587,0.29907 -14.4995439,-0.0996 -14.4995439,-0.0996 -15.7479471,-1.46212 -1.151939,-1.25728 -1.2355156,-1.49668 -1.081618,-3.09832 0.1974945,-2.05537 1.2024225,-3.31079 3.0641682,-3.82797 0.7310199,-0.20307 6.8291739,-0.3511 14.5108519,-0.35224 14.481283,-0.002 14.77556,0.0366 14.312031,1.88342 -0.23513,0.93683 -0.23513,0.93683 -14.009934,0.93683 -8.820688,0 -14.020216,0.13134 -14.457167,0.36519 -0.7627473,0.40821 -0.9071252,1.73838 -0.25903,2.38648 0.315202,0.3152 4.041431,0.42333 14.588107,0.42333 14.164052,0 14.164835,-4e-5 15.363472,-0.80525 1.410204,-0.94733 2.32005,-3.13173 1.938168,-4.65326 -0.13854,-0.552 -0.782285,-1.53402 -1.430542,-2.18228 -1.178652,-1.17865 -1.178652,-1.17865 -16.221038,-1.17865 -14.194015,0 -15.1180879,0.0386 -16.3846497,0.68477 -2.5903605,1.3215 -4.2668412,4.03664 -4.272105,6.91888 -0.00277,1.51398 1.6186265,4.59349 2.8982604,5.50467 2.344386,1.66935 2.669658,1.69648 19.3247703,1.61178 15.665876,-0.0797 15.702455,-0.0816 17.542597,-0.91353 z"
           id="path1135" />
        <path
           style="fill:#333333;fill-opacity:1;stroke-width:0.352778"
           d="M 9.5088048,219.96815 C 4.3632387,219.07648 1.3052643,215.51058 0.88153427,209.9079 0.64673739,206.80335 1.2207086,203.54671 2.4196856,201.18065 3.3221931,199.39964 20.777313,176.29679 22.905949,174.06591 c 1.642594,-1.72149 4.442719,-3.08266 7.236086,-3.51755 1.384102,-0.21548 8.468167,-0.3149 17.780435,-0.24952 15.291663,0.10736 15.501082,0.11853 17.24355,0.91984 3.775939,1.73645 5.945632,5.11238 5.940428,9.24301 -0.0018,1.2642 -0.243356,2.85057 -0.538825,3.5356 -0.294767,0.68341 -5.161788,8.00988 -10.815602,16.28105 -10.978405,16.06073 -12.2646,17.60647 -15.857924,19.05785 -1.984107,0.80141 -2.219702,0.81319 -17.35724,0.86795 -8.440208,0.0306 -16.102831,-0.0757 -17.0280522,-0.23599 z m 33.7046602,-3.26966 c 0.731926,-0.34226 1.969033,-1.19891 2.749127,-1.90368 1.507712,-1.36213 20.422152,-28.72326 21.756527,-31.47242 1.373162,-2.82907 0.88453,-5.55286 -1.427463,-7.9571 -0.972819,-1.01163 -1.990982,-1.67444 -2.977222,-1.93813 -1.043297,-0.27894 -6.404041,-0.36984 -17.638887,-0.29907 -16.119858,0.10153 -16.142396,0.1027 -17.989215,0.93758 -1.017024,0.45976 -2.366399,1.41441 -2.99861,2.12145 -1.425151,1.59383 -18.7404026,24.27873 -18.9157278,24.7817 -0.07005,0.20097 0.4061996,0.0744 1.0583332,-0.28129 1.087955,-0.59337 2.4361826,-0.65573 16.3551406,-0.75653 10.468002,-0.0758 15.58625,0.0126 16.514292,0.28532 3.488863,1.02515 5.680254,4.91817 4.810135,8.54523 -0.557103,2.32226 -2.673343,4.53767 -4.931886,5.16299 -1.163552,0.32215 -5.335536,0.40898 -15.945103,0.33186 -14.369227,-0.10444 -14.369227,-0.10444 -15.4725236,-1.20805 -2.2484296,-2.24908 -1.4620792,-6.07372 1.4553582,-7.07856 1.5968104,-0.54998 27.5746404,-0.63694 28.5859734,-0.0957 0.769041,0.41158 0.894687,1.39804 0.259031,2.0337 -0.314548,0.31455 -3.901389,0.42333 -13.957914,0.42333 -8.655095,0 -13.780585,0.13166 -14.216943,0.36519 -0.7627473,0.40821 -0.9071252,1.73838 -0.25903,2.38648 0.315211,0.31521 4.031917,0.423 14.552082,0.42201 13.390851,-10e-4 14.187733,-0.0373 15.258149,-0.68995 2.787322,-1.69953 2.904684,-5.29636 0.241184,-7.39147 -0.916319,-0.72077 -1.259946,-0.7367 -15.893378,-0.7367 -11.743624,0 -15.2006851,0.1021 -16.0920067,0.47524 -1.4891454,0.62341 -3.5836518,2.97305 -4.1323956,4.63576 -0.8684375,2.63139 0.1960479,6.19091 2.3405721,7.82662 2.4350541,1.85731 2.5975319,1.87199 19.7066252,1.78094 14.31885,-0.0762 16.005449,-0.14548 17.205775,-0.70676 z"
           id="path1133" />
      </g>
      <path
         style="fill:#d35f5f;stroke-width:0.909989"
         d="M 55.653747,91.267302 C 51.250788,89.287234 46.702301,84.863937 44.491745,80.412506 42.796224,76.998175 42.581529,71.964717 43.351462,53.678307 c 0.309699,-7.355111 0.08184,-9.600854 -1.228694,-12.110676 -0.884883,-1.694634 -1.479017,-3.209027 -1.320301,-3.365289 0.795508,-0.783224 4.565873,2.944088 6.352901,6.280399 1.77394,3.311846 2.083516,5.615643 2.509706,18.676551 0.339441,10.402198 0.877137,15.579949 1.781622,17.156061 2.864001,4.990599 5.336488,7.543047 9.70956,10.023474 l 4.585426,2.600879 -3.209798,-0.0097 c -1.76539,-0.0069 -4.860553,-0.753705 -6.878137,-1.661047 z m 9.143022,-11.1932 C 57.447349,72.837957 57.064846,63.048142 63.412649,44.648806 67.722125,32.157654 68.653309,26.326864 67.191422,20.987422 65.067585,13.23023 57.77653,8.5077954 51.336579,10.718187 c -2.399038,0.823421 -2.616304,0.77213 -1.639349,-0.386864 1.734328,-2.0575316 7.313093,-3.1918926 11.296807,-2.2970476 5.830504,1.309701 9.858261,5.4774306 12.136388,12.5580916 2.277866,7.079869 1.247289,14.140076 -4.165204,28.534651 -2.475988,6.584897 -4.770918,13.970027 -5.099845,16.411396 -0.777813,5.77307 0.779624,11.289643 4.302609,15.240281 3.987052,4.471009 1.319057,3.913374 -3.371216,-0.704593 z M 76.79938,73.51385 C 72.101683,68.523074 72.952071,61.605854 80.102635,46.644605 83.67122,39.177998 84.868071,35.563821 85.22601,31.173556 85.803999,24.083884 84.291142,17.593877 80.795338,12.166543 77.54264,7.1166314 79.639081,7.7729744 84.82945,13.429521 c 5.097446,5.555312 6.433703,9.307131 6.456054,18.126497 0.0212,8.416909 -0.617198,10.183134 -8.962041,24.790899 -4.840896,8.474032 -5.857058,12.842914 -3.890097,16.725016 1.686628,3.328813 1.205788,3.458874 -1.633986,0.441917 z"
         id="path848"
         sodipodi:nodetypes="cssssssssccccsssssssssssssssscsss" />
    </g>
  </g>
</svg>
